<svg width="25" height="26" viewBox="0 0 25 26" fill="none" xmlns="http://www.w3.org/2000/svg">
<path d="M25 8.31251C25 8.01563 25 7.71876 25 7.41407C25 7.16407 24.9922 6.91407 24.9922 6.65626C24.9844 6.10938 24.9375 5.55469 24.8516 5.01563C24.7578 4.46875 24.5859 3.94532 24.3359 3.45313C23.8281 2.46094 23.0234 1.66406 22.0391 1.15625C21.5469 0.906251 21.0234 0.734375 20.4766 0.640626C19.9375 0.554688 19.3828 0.5 18.8359 0.5C18.5703 0.5 18.3203 0.5 18.0703 0.5C17.7734 0.5 17.4766 0.5 17.1719 0.5H7.82031C7.51563 0.5 7.21875 0.5 6.92187 0.5C6.67187 0.5 6.42187 0.507813 6.16405 0.507813C5.61719 0.515626 5.06249 0.562501 4.52343 0.648438C3.97656 0.742188 3.45312 0.914063 2.96093 1.16406C1.97656 1.67188 1.17187 2.47656 0.671868 3.46875C0.421868 3.96094 0.25 4.48438 0.156241 5.03125C0.0703077 5.57032 0.0156143 6.12501 0.00780152 6.67188C0.00780152 6.92188 0 7.17188 0 7.42188C0 7.71876 0 8.01563 0 8.32032V18.6172C0 18.8516 0.00780152 19.0938 0.00780152 19.3281C0.015615 19.875 0.0624937 20.4219 0.148428 20.9688C0.242187 21.5156 0.414055 22.0391 0.664054 22.5313C1.17187 23.5235 1.97656 24.3203 2.96093 24.8281C3.45312 25.0781 3.97656 25.25 4.52343 25.3438C5.06249 25.4297 5.61719 25.4844 6.16405 25.4922C6.41405 25.5 6.66405 25.5 6.92187 25.5C7.21875 25.5 7.51563 25.5 7.82031 25.5H17.1797C17.4766 25.5 17.7734 25.5 18.0781 25.5C18.3281 25.5 18.5781 25.4922 18.8359 25.4922C19.3828 25.4844 19.9375 25.4375 20.4766 25.3438C21.0234 25.25 21.5469 25.0781 22.0391 24.8281C23.0234 24.3203 23.8281 23.5235 24.3281 22.5313C24.5781 22.0391 24.75 21.5156 24.8438 20.9688C24.9297 20.4297 24.9844 19.875 24.9844 19.3281C24.9922 19.0781 24.9922 18.8281 24.9922 18.5703C24.9922 18.2735 24.9922 17.9766 24.9922 17.6719L25 8.31251ZM7.70312 8.60938C8.03907 8.21876 8.51563 7.96876 9.03125 7.92188C9.07031 8.44532 8.89844 8.96095 8.56249 9.3672C8.23437 9.77345 7.74219 10.0078 7.21875 10C7.18749 9.48438 7.35937 8.98438 7.70312 8.60938ZM10.2891 15.8125C9.91407 16.3672 9.52344 16.9063 8.90625 16.9219C8.30468 16.9297 8.10937 16.5703 7.42187 16.5703C6.73437 16.5703 6.51563 16.9063 5.94531 16.9297C5.35156 16.9531 4.89063 16.3438 4.51563 15.7891C3.74219 14.6719 3.15624 12.6328 3.95312 11.2578C4.32812 10.5781 5.03905 10.1484 5.81249 10.125C6.39844 10.1172 6.93749 10.5156 7.29687 10.5156C7.65625 10.5156 8.28125 10.0469 9.02344 10.0938C9.67968 10.1172 10.2891 10.4531 10.6719 10.9922C10.0781 11.3594 9.70312 12.0078 9.69531 12.7109C9.70312 13.5078 10.1719 14.2188 10.8984 14.5391C10.7656 14.9922 10.5547 15.4219 10.2891 15.8125ZM14.9609 11.5469H13.75V15.086C13.75 15.6328 13.9922 15.8828 14.5234 15.8828C14.6719 15.8828 14.8125 15.8672 14.9609 15.8516V16.8516C14.7266 16.8906 14.4844 16.9063 14.2422 16.9063C12.9922 16.9063 12.5078 16.4297 12.5078 15.2109V11.5469H11.5781V10.5547H12.5V9.04688H13.75V10.5547H14.9609V11.5469V11.5469ZM19.1953 16.8516H17.8672L15.6328 10.5469H16.9531L18.5234 15.6172H18.5547L20.125 10.5469H21.4219L19.1953 16.8516Z" fill="black"/>
</svg>
