<svg width="38" height="26" viewBox="0 0 38 26" fill="none" xmlns="http://www.w3.org/2000/svg">
<path d="M2.742 16.8679C2.5405 16.8679 2.43649 16.7639 2.43649 16.5624V10.3224H1.3055C1.104 10.3224 1 10.2184 1 10.0169V9.63338C1 9.52938 1.02601 9.45788 1.07149 9.40588C1.117 9.35388 1.20798 9.32138 1.33799 9.30188L2.43649 9.16538V7.91738C2.43649 6.22088 3.24899 5.36938 4.874 5.36938C5.25749 5.36938 5.667 5.42788 6.096 5.53839C6.20651 5.57088 6.2845 5.61638 6.32999 5.67488C6.37549 5.73338 6.40148 5.84388 6.40148 5.99338V6.38988C6.40148 6.58488 6.32348 6.68238 6.17398 6.68238C6.08297 6.68238 5.95298 6.66938 5.78397 6.63688C5.61497 6.60439 5.42648 6.59138 5.21197 6.59138C4.74397 6.59138 4.41897 6.68238 4.23046 6.85789C4.04196 7.03338 3.95097 7.32589 3.95097 7.73538V9.13938H6.01148C6.21297 9.13938 6.31698 9.24338 6.31698 9.44488V10.0234C6.31698 10.2249 6.21297 10.3289 6.01148 10.3289H3.95097V16.5689C3.95097 16.7704 3.84696 16.8744 3.64547 16.8744L2.742 16.8679Z" fill="black"/>
<path d="M8.37101 7.76781C8.0785 7.76781 7.84451 7.68331 7.67551 7.51431C7.5065 7.34531 7.422 7.12431 7.422 6.85131C7.422 6.57831 7.5065 6.35731 7.67551 6.18831C7.84451 6.01931 8.072 5.93481 8.37101 5.93481C8.66352 5.93481 8.89751 6.01931 9.06652 6.18831C9.23552 6.35731 9.32003 6.57831 9.32003 6.85131C9.32003 7.12431 9.23552 7.34531 9.06652 7.51431C8.89751 7.68331 8.67001 7.76781 8.37101 7.76781ZM7.91602 16.8743C7.71452 16.8743 7.61052 16.7703 7.61052 16.5688V9.44481C7.61052 9.24331 7.71453 9.13931 7.91602 9.13931H8.81303C9.01453 9.13931 9.11853 9.24331 9.11853 9.44481V16.5688C9.11853 16.7703 9.01452 16.8743 8.81303 16.8743H7.91602Z" fill="black"/>
<path d="M11.4129 16.8676C11.2114 16.8676 11.1074 16.7636 11.1074 16.5621V9.44463C11.1074 9.24313 11.2114 9.13913 11.4129 9.13913H12.0824C12.1864 9.13913 12.2644 9.15863 12.3164 9.19762C12.3749 9.23663 12.4074 9.31463 12.4334 9.42513L12.5374 10.2766C12.8104 9.98413 13.0704 9.75013 13.3174 9.57463C13.5644 9.39912 13.8114 9.27563 14.0714 9.19113C14.3314 9.10663 14.6109 9.06763 14.9034 9.06763C15.0269 9.06763 15.1504 9.07412 15.2674 9.08063C15.4429 9.10013 15.5274 9.19113 15.5274 9.35363V10.1791C15.5274 10.3611 15.4364 10.4521 15.2544 10.4521C15.1634 10.4521 15.0724 10.4456 14.9879 10.4391C14.9034 10.4261 14.8059 10.4261 14.7084 10.4261C13.8959 10.4261 13.2004 10.6731 12.6219 11.1606V16.5621C12.6219 16.7636 12.5179 16.8676 12.3164 16.8676H11.4129V16.8676Z" fill="black"/>
<path d="M19.6031 17.1016C18.3551 17.1016 17.4061 16.7571 16.7691 16.0616C16.1256 15.3726 15.8071 14.3456 15.8071 12.9936C15.8071 11.7001 16.1256 10.6991 16.7691 9.98412C17.4126 9.26912 18.3031 8.91162 19.4536 8.91162C20.4221 8.91162 21.1631 9.18462 21.6831 9.73062C22.2031 10.2766 22.4631 11.0436 22.4631 12.0381C22.4631 12.3631 22.4371 12.6946 22.3851 13.0326C22.3657 13.1561 22.3332 13.2341 22.2877 13.2796C22.2421 13.3186 22.1707 13.3381 22.0667 13.3381H17.2762C17.2957 14.2156 17.5101 14.8591 17.9262 15.2751C18.3357 15.6911 18.9792 15.8991 19.8372 15.8991C20.1427 15.8991 20.4352 15.8796 20.7147 15.8406C20.9942 15.8016 21.3452 15.7106 21.7742 15.5806C21.8457 15.5611 21.9042 15.5416 21.9562 15.5286C22.0082 15.5156 22.0537 15.5026 22.0927 15.5026C22.2227 15.5026 22.2942 15.5936 22.2942 15.7756V16.2046C22.2942 16.3346 22.2747 16.4321 22.2357 16.4841C22.1967 16.5426 22.1057 16.6011 21.9757 16.6596C21.6702 16.7896 21.3062 16.9001 20.8837 16.9781C20.4546 17.0561 20.0256 17.1016 19.6031 17.1016ZM21.0656 12.3241C21.0786 12.2396 21.0786 12.1096 21.0786 11.9276C21.0786 11.3101 20.9356 10.8421 20.6431 10.5236C20.3506 10.2116 19.9281 10.0491 19.3691 10.0491C18.7256 10.0491 18.2316 10.2376 17.8741 10.6211C17.5166 11.0046 17.3151 11.5701 17.2631 12.3241H21.0656Z" fill="black"/>
<path d="M28.1245 16.9783C26.6815 16.9783 25.96 16.2568 25.96 14.8139V10.3289H24.8615C24.66 10.3289 24.556 10.2248 24.556 10.0233V9.63985C24.556 9.53585 24.582 9.46435 24.6275 9.41235C24.673 9.36035 24.764 9.32785 24.894 9.30835L26.0055 9.17185L26.207 7.28035C26.2265 7.07885 26.337 6.97485 26.5255 6.97485H27.169C27.3705 6.97485 27.4745 7.07885 27.4745 7.28035V9.13935H29.457C29.6585 9.13935 29.7625 9.24335 29.7625 9.44485V10.0233C29.7625 10.2249 29.6585 10.3289 29.457 10.3289H27.4745V14.7358C27.4745 15.1128 27.559 15.3794 27.728 15.5288C27.897 15.6784 28.183 15.7564 28.5925 15.7564C28.7875 15.7564 29.0215 15.7303 29.3075 15.6784C29.457 15.6458 29.561 15.6329 29.613 15.6329C29.6975 15.6329 29.7495 15.6589 29.782 15.7044C29.8145 15.7499 29.8275 15.8214 29.8275 15.9253V16.3349C29.8275 16.4649 29.808 16.5689 29.769 16.6339C29.73 16.6989 29.6455 16.7509 29.522 16.7964C29.1125 16.9134 28.651 16.9783 28.1245 16.9783Z" fill="black"/>
<path d="M33.9225 16.8681C33.7795 16.8681 33.6755 16.8486 33.6105 16.8096C33.5455 16.7706 33.474 16.6536 33.4025 16.4586L30.705 9.68556C30.6855 9.62705 30.6595 9.56206 30.6335 9.50356C30.6075 9.44505 30.5945 9.38656 30.5945 9.33456C30.5945 9.20456 30.6725 9.13306 30.822 9.13306H31.719C31.8685 9.13306 31.979 9.15256 32.0375 9.19155C32.096 9.23056 32.1675 9.34756 32.239 9.54256L34.3255 15.4901L36.412 9.54255C36.4835 9.34756 36.5485 9.23055 36.6135 9.19155C36.672 9.15256 36.7825 9.13306 36.932 9.13306H37.7705C37.92 9.13306 37.998 9.19805 37.998 9.33456C37.998 9.38656 37.985 9.43856 37.959 9.50355C37.933 9.56205 37.9135 9.62705 37.8875 9.68555L35.203 16.4586C35.1315 16.6536 35.06 16.7706 34.995 16.8096C34.93 16.8486 34.826 16.8681 34.683 16.8681H33.9225Z" fill="black"/>
<path d="M30.9845 21.6972C27.8125 24.0372 23.2105 25.2852 19.252 25.2852C13.701 25.2852 8.7025 23.2312 4.91952 19.8187C4.62052 19.5522 4.88702 19.1817 5.24452 19.3897C9.32652 21.7622 14.3705 23.1922 19.5835 23.1922C23.1 23.1922 26.961 22.4642 30.523 20.9562C31.056 20.7287 31.511 21.3072 30.9845 21.6972Z" fill="black"/>
<path d="M32.304 20.1892C31.901 19.6692 29.6195 19.9422 28.599 20.0657C28.287 20.1047 28.2415 19.8317 28.521 19.6367C30.3345 18.3627 33.3115 18.7267 33.656 19.1557C34.007 19.5847 33.565 22.5682 31.862 23.9917C31.602 24.2127 31.3485 24.0957 31.4655 23.8032C31.8555 22.8542 32.707 20.7092 32.304 20.1892Z" fill="black"/>
</svg>
