<?xml version="1.0" encoding="utf-8"?>
<!-- Generator: Adobe Illustrator 26.0.3, SVG Export Plug-In . SVG Version: 6.00 Build 0)  -->
<svg version="1.1" id="Layer_1" xmlns="http://www.w3.org/2000/svg" xmlns:xlink="http://www.w3.org/1999/xlink" x="0px" y="0px"
	 viewBox="0 0 55 26" style="enable-background:new 0 0 55 26;" xml:space="preserve">
<style type="text/css">
	.st0{fill:none;}
</style>
<path class="st0" d="M55,0H0v26h55V0z"/>
<path d="M19.9,13.3c1.2,0.5,2.4,1,2.2,2.2c-0.2,1.3-2,1.5-3.5,1.5h-0.4c-2.1-0.1-3.1-0.2-3.1-0.2l0.1-1.4c0,0,1.4,0.3,2.8,0.3
	c0.8,0,1.3,0,1.3-0.3c0-0.2-0.4-0.4-1.2-0.7l-0.7-0.3c-0.9-0.4-2.3-0.9-2.2-2c0.1-1.2,1.5-1.5,2.3-1.6c0.5-0.1,1-0.1,1.7-0.1
	c1.5,0,2.9,0.3,2.9,0.3L22,12.3c0,0-1.4-0.3-2.8-0.3c-0.9,0-1.2,0.1-1.2,0.3c-0.1,0.3,0.4,0.5,1.1,0.7L19.9,13.3L19.9,13.3z
	 M25.1,14.3L25.1,14.3c0,0.4,0.4,1.3,2.2,1.4h0.1c1.3,0,2.5-0.3,2.7-0.3c-0.1,0.4-0.2,1-0.2,1.3c-0.4,0.1-1.4,0.3-2.8,0.3
	c-4,0-4.5-1.9-4.4-3.2c0.1-1.4,1.5-3.2,4.2-3.1c0.3,0,0.5,0,0.7,0.1c0.6,0.1,3.2,0.7,2.7,3.6L25.1,14.3L25.1,14.3L25.1,14.3z
	 M28.3,13.2c0,0,0.1-1.3-1.4-1.3c-1.1,0-1.5,0.7-1.7,1.3H28.3L28.3,13.2z M49.4,14.3L49.4,14.3c0,0.4,0.4,1.3,2.2,1.4h0.1
	c1.3,0,2.5-0.3,2.7-0.3c-0.1,0.4-0.2,1-0.2,1.3c-0.4,0.1-1.4,0.3-2.8,0.3c-4,0-4.5-1.9-4.4-3.2c0.1-1.4,1.5-3.2,4.2-3.1
	c0.3,0,0.5,0,0.7,0.1c0.6,0.1,3.2,0.7,2.7,3.6L49.4,14.3L49.4,14.3L49.4,14.3z M52.6,13.2c0,0,0.1-1.3-1.4-1.3
	c-1.1,0-1.5,0.7-1.7,1.3H52.6z M36.2,12.9c-0.1,1.1-0.3,4-0.3,4h2.4l0.3-4.1c0.1-1.8-1.2-2-2.1-2.1c-0.1,0-0.5,0-1.1,0
	c-0.2,0-0.3,0-0.5,0c-1.5,0.1-3.4,0.3-3.4,0.3l-0.4,5.9h2.4l0.3-4.8c0,0,0.9-0.1,1.5-0.1C35.6,12,36.3,12,36.2,12.9z M13.9,8.5h-2
	l-0.1,1.6h2.6c0,0,0.1-0.9,0.1-1.1C14.5,8.7,14.3,8.5,13.9,8.5z M44.2,13.3l-0.9-0.4c-0.6-0.3-1.1-0.5-1.1-0.7
	c0-0.1,0.3-0.2,1.2-0.3c1.4,0,2.8,0.3,2.8,0.3l0.1-1.3c0,0-1.3-0.3-2.9-0.3c-0.7,0-1.2,0-1.7,0.1c-0.8,0.1-2.2,0.5-2.3,1.6
	c-0.1,1.2,1.3,1.7,2.2,2l0.7,0.3c0.8,0.3,1.2,0.4,1.2,0.7s-0.6,0.3-1.3,0.3c-1.4,0-2.8-0.3-2.8-0.3l-0.1,1.4c0,0,1,0.2,3.1,0.2
	c0.1,0,0.2,0,0.4,0c1.5,0,3.3-0.2,3.5-1.5C46.6,14.3,45.4,13.8,44.2,13.3L44.2,13.3z M8.1,8.5l-0.2,2.9H4.1L4.3,9
	c0-0.5-0.4-0.5-0.6-0.5h-2L1,16.9h2.6l0.3-3.7h3.8l-0.3,3.7H10l0.6-8.4H8.1L8.1,8.5z M11.7,10.8l-0.5,6.1h2.6l0.5-6.1
	C14.3,10.8,11.7,10.8,11.7,10.8z"/>
</svg>
