<svg width="80" height="26" viewBox="0 0 80 26" fill="none" xmlns="http://www.w3.org/2000/svg">
<path d="M78.2329 16.219C78.2329 16.0838 78.2862 15.9588 78.3811 15.8626C78.4754 15.7673 78.6028 15.7152 78.7386 15.7152C78.8719 15.7152 78.998 15.7673 79.0955 15.8626C79.1897 15.9588 79.2417 16.0838 79.2417 16.219C79.2417 16.4976 79.0162 16.7234 78.7386 16.7234C78.6028 16.7234 78.4754 16.6709 78.3811 16.5761C78.2862 16.4805 78.2329 16.3539 78.2329 16.219ZM78.7386 16.8249C78.8998 16.8249 79.0526 16.7628 79.165 16.648C79.2794 16.5339 79.3444 16.381 79.3444 16.219C79.3444 16.0552 79.2794 15.9048 79.165 15.7908C79.0526 15.6767 78.8998 15.6138 78.7386 15.6138C78.4026 15.6138 78.1309 15.8844 78.1309 16.219C78.1309 16.381 78.1933 16.5339 78.3077 16.648C78.4234 16.7628 78.5748 16.8249 78.7386 16.8249Z" fill="black"/>
<path d="M78.9017 16.0671C78.9017 16.1046 78.8926 16.1297 78.8718 16.1437C78.851 16.1577 78.8218 16.165 78.7847 16.165H78.5962V15.974H78.7945C78.8224 15.974 78.8452 15.9776 78.8608 15.9854C78.8874 15.9994 78.9017 16.026 78.9017 16.0671ZM79.0363 16.5013C79.0272 16.4976 79.02 16.4879 79.0181 16.4716C79.0142 16.4613 79.0122 16.4434 79.0122 16.4202L79.0083 16.3338C79.007 16.2922 78.9979 16.262 78.9843 16.2432C78.9739 16.2312 78.9589 16.2203 78.9433 16.2103C78.9635 16.1968 78.983 16.1812 78.9947 16.1619C79.0122 16.1339 79.02 16.099 79.02 16.0584C79.02 15.9776 78.9875 15.9226 78.9212 15.8929C78.8874 15.8761 78.8439 15.8689 78.7932 15.8689H78.4935H78.4799V15.884V16.5298V16.5441H78.4935H78.5826H78.5962V16.5298V16.2675H78.7815C78.814 16.2675 78.8393 16.2707 78.8536 16.2785C78.8757 16.2905 78.8887 16.3134 78.8926 16.3503L78.8965 16.4585C78.8978 16.4839 78.8998 16.5013 78.9011 16.5111C78.9043 16.5212 78.9056 16.5298 78.9108 16.5368L78.9154 16.5441H78.9232H79.0291H79.046V16.5298V16.5147V16.506L79.0363 16.5013Z" fill="black"/>
<path d="M29.2517 9.11317L25.9718 9.11206C25.9595 9.11206 25.9484 9.12298 25.9484 9.13416V16.8034C25.9484 16.8157 25.9595 16.8257 25.9718 16.8257H27.3004C27.3136 16.8257 27.3239 16.8157 27.3239 16.8034V9.96844C27.3239 9.96259 27.3284 9.95641 27.3329 9.95641L28.8521 9.95388C29.4062 9.95388 29.7098 10.5103 29.7098 11.526C29.7098 12.5375 29.4062 13.0975 28.8521 13.0975L27.9385 13.0958C27.9253 13.0958 27.9141 13.1068 27.9141 13.1193V13.9142C27.9141 13.9276 27.9253 13.9396 27.9385 13.9396H29.2517C29.7098 13.9396 30.1631 13.7258 30.493 13.355C30.8813 12.918 31.0863 12.287 31.0863 11.5307C31.0863 10.0621 30.3655 9.11317 29.2517 9.11317Z" fill="black"/>
<path d="M33.2563 9.11206H31.9282C31.9143 9.11206 31.9039 9.12246 31.9039 9.13442V16.8037C31.9039 16.8157 31.9143 16.8261 31.9282 16.8261H33.2563C33.2711 16.8261 33.28 16.8157 33.28 16.8037V9.13442C33.28 9.12246 33.2711 9.11206 33.2563 9.11206Z" fill="black"/>
<path d="M39.0586 10.9778C39.0586 10.9643 39.0475 10.9529 39.0332 10.9529H36.6629C34.5406 10.9529 34.2688 12.5146 34.2688 13.8832L34.2707 15.0678C34.2707 16.0857 34.9029 16.8258 35.7777 16.8258H37.068C37.0803 16.8258 37.0921 16.8154 37.0921 16.8035V16.0077C37.0921 15.9946 37.0803 15.9849 37.068 15.9849H36.1448C35.9304 15.9806 35.6452 15.89 35.6447 15.1623V13.8832C35.6447 13.0327 35.7268 12.4917 35.9005 12.1831C36.0906 11.8408 36.392 11.795 36.6618 11.795H37.6747C37.68 11.795 37.6847 11.8 37.6847 11.8065V16.8035C37.6847 16.8154 37.694 16.8258 37.7068 16.8258H39.0346C39.048 16.8258 39.0586 16.8154 39.0586 16.8035V11.0133V10.9778V10.9778Z" fill="black"/>
<path d="M48.6215 12.322L47.9667 12.2725C47.4774 12.2313 47.1101 11.9582 47.1101 11.1508C47.1101 10.2108 47.5359 9.95693 48.0947 9.95693H49.9059C49.9179 9.95693 49.93 9.94549 49.93 9.93295V9.13416C49.93 9.12214 49.9179 9.11206 49.9059 9.11206H49.8707H49.8696H47.9075C46.6697 9.11206 45.7891 9.83785 45.7891 11.2861V11.347C45.7891 12.4936 46.4927 13.3161 47.5389 13.3953L48.1952 13.4461C48.6881 13.4842 48.9947 13.9256 48.9947 14.6011V14.7921C48.9947 15.2159 48.8933 15.985 47.9896 15.985H46.1441H46.1075C46.0941 15.985 46.0846 15.9951 46.0846 16.0074V16.8028C46.0846 16.8157 46.0941 16.8257 46.1075 16.8257H48.4403C49.1639 16.8257 50.3714 16.5347 50.3714 14.5726C50.3714 13.8661 50.2054 13.3047 49.8816 12.9012C49.6006 12.5557 49.1893 12.3661 48.6215 12.322Z" fill="black"/>
<path d="M59.5128 10.9778C59.5128 10.9643 59.5024 10.9529 59.4887 10.9529H57.1181C54.9969 10.9529 54.7255 12.5146 54.7255 13.8832V15.0678C54.7255 16.0857 55.3593 16.8258 56.2316 16.8258H57.5241C57.5364 16.8258 57.5459 16.8154 57.5459 16.8035V16.0077C57.5459 15.9946 57.5364 15.9849 57.5241 15.9849H56.6001C56.3862 15.9806 56.101 15.89 56.101 15.1623V13.8832C56.101 13.0327 56.1807 12.4917 56.3554 12.1831C56.5444 11.8408 56.8489 11.795 57.117 11.795H58.1307C58.1344 11.795 58.1391 11.8 58.1391 11.8065L58.1367 16.8035C58.1367 16.8154 58.1475 16.8258 58.1604 16.8258H59.4904C59.5043 16.8258 59.5139 16.8154 59.5139 16.8035L59.5128 10.9778Z" fill="black"/>
<path d="M54.1693 10.953H52.7317C52.728 10.953 52.7219 10.9483 52.7219 10.9446V10.939V9.98035C52.7219 9.96611 52.7135 9.9563 52.7001 9.9563H51.3701C51.3578 9.9563 51.3472 9.96611 51.3472 9.98035V15.0691C51.3472 16.0876 51.979 16.8256 52.8541 16.8256H53.8067C53.8201 16.8256 53.8285 16.8156 53.8285 16.8033V16.0079C53.8285 15.9945 53.8201 15.985 53.8067 15.985H53.2209C53.0711 15.9808 52.7219 15.9741 52.7219 15.2225V11.8018C52.7219 11.7968 52.7261 11.792 52.7317 11.792C53.169 11.7946 54.1693 11.792 54.1693 11.792C54.1825 11.792 54.1928 11.7823 54.1928 11.7686V10.9779C54.1928 10.965 54.1825 10.953 54.1693 10.953Z" fill="black"/>
<path d="M63.4496 10.953H62.0114C62.0083 10.953 62.0042 10.9483 62.0042 10.9446V10.939V9.98035C62.0042 9.96611 61.9944 9.9563 61.9798 9.9563H60.6515C60.6378 9.9563 60.6281 9.96611 60.6281 9.98035V15.0691C60.6281 16.0876 61.2615 16.8256 62.1353 16.8256H63.0853C63.1004 16.8256 63.1107 16.8156 63.1107 16.8033V16.0079C63.1107 15.9945 63.1004 15.985 63.0853 15.985H62.5001C62.3545 15.9808 62.0042 15.9741 62.0027 15.2225V11.8018C62.0027 11.7968 62.0072 11.792 62.0109 11.792C62.4518 11.7946 63.4496 11.792 63.4496 11.792C63.4635 11.792 63.4719 11.7823 63.4719 11.7686V10.9779C63.4719 10.965 63.4635 10.953 63.4496 10.953Z" fill="black"/>
<path d="M65.6464 10.9529H64.3184C64.3041 10.9529 64.2957 10.9649 64.2957 10.9778V16.8031C64.2957 16.8155 64.3041 16.8255 64.3184 16.8255H65.6464C65.66 16.8255 65.6704 16.8155 65.6704 16.8031V10.9778C65.6704 10.9649 65.66 10.9529 65.6464 10.9529Z" fill="black"/>
<path d="M65.6464 9.11206H64.3184C64.3041 9.11206 64.2957 9.12246 64.2957 9.13442V10.2477C64.2957 10.2609 64.3041 10.2713 64.3184 10.2713H65.6464C65.66 10.2713 65.6704 10.2609 65.6704 10.2477V9.13442C65.6704 9.12246 65.66 9.11206 65.6464 9.11206Z" fill="black"/>
<path d="M74.8366 10.9529H72.4648C72.4531 10.9529 72.442 10.9649 72.442 10.9778L72.4401 16.8031C72.4401 16.8155 72.4505 16.8255 72.4648 16.8255H73.7927C73.8064 16.8255 73.8161 16.8155 73.8161 16.8031L73.8148 11.8034C73.8148 11.7987 73.8181 11.7944 73.8239 11.7944H74.8366C75.1077 11.7944 75.4093 11.8378 75.5991 12.1532C75.7739 12.44 75.8565 12.9407 75.8565 13.7311C75.8565 13.7661 75.8539 16.8031 75.8539 16.8031C75.8539 16.8155 75.8662 16.8255 75.876 16.8255H77.2052C77.2189 16.8255 77.2286 16.8155 77.2286 16.8031V13.8826C77.2286 12.5144 76.9582 10.9529 74.8366 10.9529Z" fill="black"/>
<path d="M69.9026 15.5987C69.6907 15.9426 69.3579 15.989 69.0582 15.989C68.7605 15.989 68.4264 15.9426 68.2158 15.5987C68.0241 15.2875 67.935 14.7457 67.935 13.8916V13.8843C67.935 12.8734 68.0604 12.2994 68.3393 12.0256C68.5031 11.8632 68.7189 11.7944 69.0582 11.7944C69.3975 11.7944 69.612 11.8632 69.7784 12.0256C70.0573 12.2994 70.1834 12.875 70.182 13.8916C70.182 14.7463 70.0943 15.2895 69.9026 15.5987ZM69.0582 10.9529C66.8404 10.9529 66.5551 12.5233 66.5551 13.8916C66.5551 15.2593 66.8404 16.8303 69.0569 16.8303C71.278 16.8303 71.562 15.2593 71.562 13.8916C71.562 12.5233 71.278 10.9529 69.0582 10.9529Z" fill="black"/>
<path d="M39.8073 10.9529C39.7936 10.9529 39.785 10.9649 39.7905 10.9747L41.7588 16.7489C41.7649 16.7621 41.7641 16.7827 41.7588 16.7948L40.6517 19.6549C40.6466 19.6683 40.6522 19.6787 40.6659 19.6787H41.8222C41.8343 19.6787 41.851 19.6683 41.8547 19.6549L45.3168 10.9747C45.3235 10.9632 45.3162 10.9529 45.3039 10.9529H44.0404C44.0287 10.9529 44.0137 10.9649 44.0088 10.9747L42.5422 14.7695C42.536 14.7832 42.5282 14.782 42.524 14.7695L41.2337 10.9747C41.2301 10.9632 41.215 10.9529 41.2013 10.9529H39.8073V10.9529Z" fill="black"/>
<path d="M7.28455 5.45312V19.4764L10.4578 20.4835V8.72115C10.4578 8.17151 10.7033 7.80166 11.1003 7.93107C11.6181 8.07479 11.719 8.58166 11.719 9.13188V13.8292C13.6971 14.7847 15.2541 13.8286 15.2541 11.3076C15.2541 8.72115 14.3426 7.57403 11.6564 6.64973C10.5993 6.29524 8.63466 5.70252 7.28455 5.45312Z" fill="black"/>
<path d="M11.059 18.4349L16.1633 16.6149C16.7423 16.4076 16.8315 16.1141 16.3615 15.9601C15.8907 15.8071 15.0394 15.8502 14.4609 16.0585L11.059 17.2565V15.35L11.2547 15.2841C11.2547 15.2841 12.2383 14.9362 13.6189 14.7822C15.0011 14.6323 16.6937 14.8026 18.0217 15.3064C19.5191 15.7806 19.6869 16.477 19.3069 16.9562C18.9262 17.4371 17.9951 17.7796 17.9951 17.7796L11.059 20.2707V18.4349V18.4349Z" fill="black"/>
<path d="M1.46285 18.2407C-0.0737339 17.8077 -0.330394 16.9077 0.369683 16.3874C1.01943 15.9079 2.11987 15.5478 2.11987 15.5478L6.66867 13.9307V15.7732L3.39532 16.9457C2.81631 17.1534 2.72824 17.447 3.19738 17.5999C3.66848 17.7545 4.51897 17.7109 5.09799 17.5026L6.66867 16.9328V18.5826C6.56831 18.6003 6.45846 18.6176 6.35641 18.6338C4.78513 18.8907 3.11127 18.7837 1.46285 18.2407Z" fill="black"/>
<path d="M18.297 20.4577C18.495 20.4577 18.6832 20.3803 18.823 20.2396C18.9619 20.1001 19.0385 19.9134 19.0385 19.714C19.0385 19.5178 18.9619 19.3321 18.823 19.1909C18.6832 19.0483 18.495 18.9712 18.297 18.9712C17.8864 18.9712 17.5548 19.3064 17.5548 19.714C17.5548 19.9134 17.632 20.1001 17.772 20.2396C17.9118 20.3803 18.0972 20.4577 18.297 20.4577ZM17.6797 19.714C17.6797 19.5496 17.7429 19.3945 17.8598 19.2779C17.9756 19.1596 18.1313 19.0961 18.297 19.0961C18.4623 19.0961 18.6169 19.1596 18.7332 19.2779C18.8507 19.3945 18.9132 19.5496 18.9132 19.714C18.9132 20.0565 18.636 20.3319 18.297 20.3319C18.1313 20.3319 17.9756 20.2685 17.8598 20.1507C17.7429 20.0347 17.6797 19.8796 17.6797 19.714Z" fill="black"/>
<path d="M18.6622 20.0604C18.6527 20.0568 18.6432 20.0447 18.637 20.0243C18.6357 20.0103 18.6334 19.991 18.6314 19.9609L18.6273 19.8552C18.6245 19.8037 18.6166 19.7693 18.5974 19.7459C18.585 19.7294 18.5677 19.7143 18.5493 19.7042C18.5742 19.6872 18.5948 19.6679 18.6102 19.6438C18.6334 19.6111 18.6432 19.5689 18.6432 19.518C18.6432 19.419 18.6024 19.3519 18.5213 19.3145C18.4793 19.2952 18.4273 19.2874 18.3647 19.2874H17.9993H17.9806V19.303V20.095V20.113H17.9993H18.1056H18.1243V20.095V19.7741H18.3493C18.3891 19.7741 18.4212 19.7797 18.4391 19.7875C18.4668 19.8021 18.4836 19.8298 18.4849 19.877L18.4917 20.0078C18.4936 20.0383 18.4947 20.0604 18.4967 20.0727C18.4992 20.0853 18.5029 20.095 18.507 20.104L18.5135 20.113H18.5241H18.6544H18.6728V20.095V20.0769V20.0654L18.6622 20.0604ZM18.4986 19.5289C18.4986 19.5736 18.4869 19.6058 18.462 19.6231C18.436 19.6402 18.3994 19.6491 18.353 19.6491H18.1243V19.4148H18.3681C18.4008 19.4148 18.4273 19.419 18.4477 19.43C18.481 19.4467 18.4986 19.4788 18.4986 19.5289Z" fill="black"/>
</svg>
