<svg width="35" height="26" viewBox="0 0 35 26" fill="none" xmlns="http://www.w3.org/2000/svg">
<path d="M9.78802 16.8678H6.8045L4.43198 13.5853H3.63249V16.8678H1V7.00732H4.76349C6.93451 7.00732 8.70899 8.48283 8.70899 10.3028C8.70899 11.4143 8.0265 12.4023 6.99949 13.0068L9.78802 16.8678ZM6.08951 10.2963C6.09602 9.38633 5.36152 8.64533 4.4515 8.63883H3.639V11.9343H4.4515C5.35505 11.9343 6.08951 11.2063 6.08951 10.2963Z" fill="black"/>
<path d="M16.7952 13C16.8082 15.2295 15.0077 17.043 12.7782 17.056C10.5487 17.069 8.73525 15.2685 8.72224 13.039C8.70923 10.8095 10.5097 8.99597 12.7392 8.98298H12.7457C14.9687 8.96998 16.7823 10.764 16.7952 12.9935V13ZM12.7522 10.8875C12.0567 10.8875 11.4652 11.8365 11.4652 13C11.4652 14.1635 12.0567 15.1125 12.7522 15.1125C13.4607 15.1125 14.0522 14.17 14.0522 13C14.0522 11.83 13.4607 10.8875 12.7522 10.8875Z" fill="black"/>
<path d="M22.9701 9.14615L19.9411 12.1751V9.13965H17.3086V16.8617H19.9411V13.7286L23.1066 16.8617H26.4151L22.3981 12.8446L25.7261 9.51665V14.0992C25.7261 15.6202 26.6361 17.0242 28.9436 17.0242C30.0356 17.0242 31.0366 16.4066 31.5241 15.8411L32.7071 16.8617H33.2661V9.14615H30.6466V14.1446C30.3476 14.6582 29.938 14.9896 29.3011 14.9896C28.6511 14.9896 28.3586 14.6062 28.3586 13.3777V9.15265H22.9701V9.14615V9.14615Z" fill="black"/>
<path d="M34.4166 10.062C34.1306 10.062 33.8966 9.82797 33.8966 9.54196C33.8966 9.25597 34.1306 9.02197 34.4166 9.02197C34.7026 9.02197 34.9366 9.25597 34.9366 9.54196C34.9366 9.82797 34.7026 10.062 34.4166 10.062ZM34.4166 9.07396C34.1566 9.07396 33.9486 9.28197 33.9486 9.54196C33.9486 9.80197 34.1566 10.01 34.4166 10.01C34.6766 10.01 34.8846 9.80197 34.8846 9.54196C34.8846 9.28848 34.6766 9.07396 34.4166 9.07396Z" fill="black"/>
<path d="M34.1956 9.28199H34.4296C34.4881 9.2755 34.5401 9.29499 34.5791 9.33399C34.6051 9.3665 34.6246 9.40549 34.6246 9.44449C34.6246 9.52249 34.5726 9.58749 34.5011 9.60699L34.6441 9.80849H34.5336L34.4036 9.62649H34.2866V9.80849H34.1956V9.28199H34.1956ZM34.4231 9.54199C34.4946 9.54199 34.5336 9.5095 34.5336 9.451C34.5336 9.39249 34.4946 9.3665 34.4231 9.3665H34.2866V9.54199H34.4231Z" fill="black"/>
</svg>
