<?xml version="1.0" encoding="utf-8"?>
<!-- Generator: Adobe Illustrator 26.2.1, SVG Export Plug-In . SVG Version: 6.00 Build 0)  -->
<svg version="1.1" id="Layer_1" xmlns="http://www.w3.org/2000/svg" xmlns:xlink="http://www.w3.org/1999/xlink" x="0px" y="0px"
	 viewBox="0 0 1097 268" style="enable-background:new 0 0 1097 268;" xml:space="preserve">
<style type="text/css">
	.st0{fill-rule:evenodd;clip-rule:evenodd;}
	.st1{filter:url(#Adobe_OpacityMaskFilter);}
	.st2{fill-rule:evenodd;clip-rule:evenodd;fill:#FFFFFF;}
	.st3{mask:url(#mask-2_00000065777374899948996770000013204007908570376864_);fill-rule:evenodd;clip-rule:evenodd;}
	.st4{enable-background:new    ;}
</style>
<g id="SAMSUNG_TV_PLUS_SECONDARY_STACKED_LOGO_BLACK_RGB">
	<g>
		<g id="Group-2">
			<path id="Fill-14" class="st0" d="M48.8,214.6h-0.1V71.5c0-12.3,10.2-22.2,22.8-22.2h11.4h249.9V33.7c0-18.6-15.5-33.7-34.7-33.7
				H34.7C15.5,0,0,15.1,0,33.7v147.2c0,18.6,15.5,33.7,34.7,33.7H48.8z"/>
			<g id="Group-18" transform="translate(48.824232, 49.313866)">
				<g id="Clip-17">
				</g>
				<defs>
					<filter id="Adobe_OpacityMaskFilter" filterUnits="userSpaceOnUse" x="0" y="0" width="329.2" height="218.7">
						<feColorMatrix  type="matrix" values="1 0 0 0 0  0 1 0 0 0  0 0 1 0 0  0 0 0 1 0"/>
					</filter>
				</defs>
				
					<mask maskUnits="userSpaceOnUse" x="0" y="0" width="329.2" height="218.7" id="mask-2_00000065777374899948996770000013204007908570376864_">
					<g class="st1">
						<polygon id="path-1_00000011713380235792312640000000454868714312326577_" class="st2" points="0,0 329.2,0 329.2,218.7 
							0,218.7 						"/>
					</g>
				</mask>
				<path id="Fill-16" class="st3" d="M295.1,0H284v144c0,11.7-9.8,21.3-21.9,21.3h-54.6v16.6c0,7.5-6.3,13.6-14,13.6H90.4
					c-7.7,0-14-6.1-14-13.6v-16.6H0v20.3c0,18.3,15.3,33.1,34.1,33.1h260.3c19.2,0,34.8-15.1,34.8-33.8V33.1
					C329.2,14.8,313.9,0,295.1,0"/>
			</g>
		</g>
		<g class="st4">
			<path d="M488.5,110.1c-8.8,0-16.3-1.7-22.3-5c-6.1-3.3-11.3-7.5-15.8-12.5L467,80.1c2.5,4.1,5.6,7.2,9.2,9.4
				c3.7,2.2,7.7,3.3,12.2,3.3c4.8,0,8.5-1.3,11-3.9c2.5-2.6,3.8-5.5,3.8-8.8c0-2-0.6-3.7-1.7-5.1c-1.2-1.4-2.7-2.6-4.5-3.6
				c-1.9-1-4-1.9-6.5-2.7c-2.5-0.8-5-1.6-7.6-2.3c-3.3-1-6.6-2.2-9.9-3.4c-3.3-1.2-6.3-2.8-8.9-4.9c-2.6-2-4.8-4.5-6.4-7.5
				c-1.7-3-2.5-6.7-2.5-11.2c0-3.8,0.8-7.4,2.4-10.7c1.6-3.3,3.9-6.2,6.8-8.6c2.9-2.5,6.3-4.4,10.3-5.8c4-1.4,8.3-2.1,12.9-2.1
				c3.9,0,7.5,0.4,10.6,1.1c3.2,0.7,6.1,1.7,8.7,2.9c2.6,1.3,5,2.7,7.2,4.5c2.2,1.7,4.3,3.6,6.2,5.7l-15,11.7
				c-4.2-6.4-10.1-9.6-17.7-9.6c-4.5,0-7.9,1-10.2,3.1c-2.3,2.1-3.5,4.6-3.5,7.7c0,1.9,0.5,3.5,1.6,4.8c1.1,1.3,2.5,2.4,4.3,3.4
				c1.8,1,3.9,1.9,6.4,2.7c2.4,0.8,5,1.6,7.6,2.5c3.3,1,6.6,2.2,10,3.6c3.3,1.3,6.4,3.1,9.1,5.2c2.7,2.1,4.9,4.7,6.6,7.8
				c1.7,3.1,2.5,6.9,2.5,11.5c0,3.7-0.8,7.4-2.3,10.9c-1.5,3.6-3.7,6.7-6.6,9.4c-2.9,2.7-6.4,4.9-10.6,6.6
				C498.7,109.3,493.9,110.1,488.5,110.1z"/>
			<path d="M569.6,110.1c-4.7,0-9.4-0.9-14-2.6c-4.6-1.8-8.7-4.3-12.4-7.7c-3.7-3.4-6.6-7.5-8.8-12.3c-2.2-4.9-3.3-10.4-3.3-16.6
				c0-6.3,1.1-11.8,3.3-16.7c2.2-4.9,5.1-9,8.7-12.3c3.6-3.4,7.8-5.9,12.4-7.7c4.7-1.8,9.5-2.6,14.4-2.6c5.2,0,9.9,0.9,14.3,2.8
				c4.4,1.9,8,4.4,10.8,7.7V31.7h18.1V110H595V98.9c-2.9,3.5-6.5,6.2-11,8.2C579.6,109.1,574.8,110.1,569.6,110.1z M572.6,93.5
				c3.4,0,6.5-0.6,9.4-1.8c2.9-1.2,5.3-2.8,7.4-4.9c2.1-2.1,3.7-4.5,4.9-7.3c1.2-2.8,1.8-5.7,1.8-8.9c0-3.1-0.6-6-1.8-8.8
				c-1.2-2.8-2.8-5.2-4.9-7.2c-2.1-2.1-4.5-3.7-7.4-4.8c-2.9-1.2-6-1.8-9.4-1.8c-3.3,0-6.4,0.6-9.3,1.8c-2.9,1.2-5.4,2.8-7.6,4.8
				c-2.1,2-3.8,4.4-5,7.2c-1.2,2.8-1.8,5.7-1.8,8.9c0,3.2,0.6,6.2,1.8,9c1.2,2.8,2.9,5.2,5,7.3c2.1,2.1,4.7,3.7,7.6,4.8
				C566.2,93,569.3,93.5,572.6,93.5z"/>
			<path d="M625.1,31.7h17.9v10.1c2.5-3.2,5.6-5.7,9.4-7.5c3.8-1.8,8.1-2.8,12.9-2.8c6.2,0,11.4,1.2,15.6,3.5
				c4.2,2.3,7.5,5.6,9.8,9.8c2.7-4,6.2-7.3,10.6-9.7c4.4-2.4,9.4-3.6,15.1-3.6c10.5,0,18.5,2.9,23.8,8.6c5.4,5.7,8,13.6,8,23.6V110
				h-18.5V65.4c0-5.6-1.4-10-4.3-13.3c-2.9-3.3-7.1-4.9-12.7-4.9c-4.9,0-9,1.7-12.3,5c-3.3,3.3-5,8.3-5,15V110h-18.3V64.9
				c0-5.5-1.4-9.8-4.1-12.9c-2.8-3.1-6.9-4.7-12.3-4.7c-5.1,0-9.3,1.7-12.6,5.1c-3.3,3.4-5,8.5-5,15.3V110h-18.1V31.7z"/>
			<path d="M789.2,110.1c-8.7,0-15.8-1.6-21.5-4.8c-5.7-3.2-10.1-7.9-13.2-14l16.7-7.5c1.9,3.4,4.4,6.1,7.6,7.9
				c3.2,1.8,7,2.8,11.2,2.8c4.5,0,7.8-0.9,10-2.7c2.2-1.8,3.3-3.9,3.3-6.4c0-1.4-0.5-2.5-1.5-3.3c-1-0.9-2.4-1.6-4-2.2
				c-1.7-0.6-3.6-1.2-5.8-1.6c-2.2-0.4-4.5-0.9-7-1.4c-3.4-0.7-6.7-1.5-10-2.4c-3.3-0.9-6.2-2.2-8.8-3.9c-2.6-1.7-4.7-3.8-6.3-6.4
				c-1.6-2.6-2.4-5.8-2.4-9.8c0-3,0.7-5.8,2.2-8.6c1.5-2.8,3.5-5.2,6.2-7.3c2.7-2.1,5.9-3.8,9.7-5c3.8-1.2,8-1.9,12.6-1.9
				c7.8,0,14.4,1.5,19.6,4.4s9.3,6.9,12.4,11.9L805,55.1c-1.6-2.6-3.8-4.7-6.7-6.2c-2.9-1.5-6.2-2.3-9.9-2.3c-4.3,0-7.4,0.8-9.5,2.4
				c-2.1,1.6-3.1,3.5-3.1,5.6c0,2.5,1.5,4.2,4.5,5.3c3,1.1,7.5,2.2,13.4,3.4c3.2,0.6,6.4,1.4,9.7,2.4c3.3,1,6.2,2.3,8.9,4
				c2.7,1.7,4.8,3.8,6.5,6.4c1.6,2.6,2.5,5.8,2.5,9.8c0,2.6-0.6,5.4-1.9,8.2c-1.2,2.9-3.2,5.5-5.8,7.9c-2.6,2.4-6,4.4-10,5.9
				C799.6,109.4,794.8,110.1,789.2,110.1z"/>
			<path d="M900,110h-17.9v-9.8c-2.5,3.1-5.6,5.5-9.4,7.3s-8.1,2.6-13.1,2.6c-9.3,0-16.6-2.9-22-8.7c-5.4-5.8-8.1-13.8-8.1-24.2
				V31.7h18.3v43.5c0,5.9,1.4,10.6,4.1,14.1c2.7,3.4,6.9,5.2,12.6,5.2c5,0,9.1-1.8,12.4-5.4c3.3-3.6,5-8.7,5-15.4v-42H900V110z"/>
			<path d="M912.2,31.7h17.9v10.7c2.6-3.3,5.9-5.9,9.8-7.9c4-2,8.5-3,13.6-3c9.7,0,17.3,2.9,22.8,8.7c5.5,5.8,8.2,13.8,8.2,24.2V110
				h-18.3V66.5c0-5.9-1.5-10.6-4.4-14.1c-2.9-3.4-7.4-5.2-13.2-5.2c-5.2,0-9.5,1.8-13,5.4c-3.5,3.6-5.3,8.7-5.3,15.4v42h-18.1V31.7z
				"/>
			<path d="M1057.6,98.1c-2.9,3.7-6.5,6.7-11,8.8c-4.5,2.1-9.3,3.2-14.6,3.2c-4.7,0-9.4-0.9-14-2.6c-4.6-1.8-8.7-4.3-12.4-7.7
				c-3.7-3.4-6.6-7.5-8.8-12.3c-2.2-4.9-3.3-10.4-3.3-16.6c0-6.3,1.1-11.8,3.3-16.7c2.2-4.9,5.1-9,8.7-12.3
				c3.6-3.4,7.8-5.9,12.4-7.7c4.7-1.8,9.5-2.6,14.4-2.6c5.2,0,9.9,1,14.3,3c4.4,2,8,4.7,10.8,8.2V31.7h18.1V107
				c0,5.5-0.9,10.6-2.6,15.3c-1.7,4.8-4.3,8.9-7.7,12.5c-3.4,3.6-7.6,6.4-12.6,8.5c-5,2.1-10.9,3.1-17.5,3.1
				c-5.1,0-9.7-0.6-13.8-1.7c-4.1-1.1-7.9-2.7-11.2-4.7c-3.3-2-6.2-4.4-8.7-7.1c-2.5-2.7-4.6-5.7-6.4-9l16.1-9.8
				c2.9,5.3,6.1,9.2,9.6,11.8c3.6,2.6,8.5,3.9,14.7,3.9c3.4,0,6.5-0.6,9.2-1.9c2.8-1.2,5.1-2.9,7-5c1.9-2.1,3.4-4.5,4.4-7.2
				c1-2.8,1.5-5.6,1.5-8.6V98.1z M1035,93.5c3.4,0,6.5-0.6,9.4-1.8c2.9-1.2,5.3-2.8,7.4-4.9c2.1-2.1,3.7-4.5,4.9-7.3
				c1.2-2.8,1.8-5.7,1.8-8.9c0-3.1-0.6-6-1.8-8.8c-1.2-2.8-2.8-5.2-4.9-7.2c-2.1-2.1-4.5-3.7-7.4-4.8c-2.9-1.2-6-1.8-9.4-1.8
				c-3.3,0-6.4,0.6-9.3,1.8c-2.9,1.2-5.4,2.8-7.6,4.8c-2.1,2-3.8,4.4-5,7.2c-1.2,2.8-1.8,5.7-1.8,8.9c0,3.2,0.6,6.2,1.8,9
				c1.2,2.8,2.9,5.2,5,7.3c2.1,2.1,4.7,3.7,7.6,4.8C1028.6,93,1031.7,93.5,1035,93.5z"/>
		</g>
		<g class="st4">
			<path d="M479.6,165.9h-26.1v-17.4H524v17.4h-26.2v80.3h-18.2V165.9z"/>
			<path d="M531.9,148.5h18.9l23.1,69.8l23-69.8h18.9L583,246.2h-18.3L531.9,148.5z"/>
			<path d="M658.3,148.5h33.5c5.1,0,9.8,0.9,14,2.7c4.3,1.8,8,4.3,11.1,7.4c3.1,3.1,5.6,6.8,7.4,11c1.8,4.2,2.7,8.8,2.7,13.6
				c0,4.8-0.9,9.4-2.7,13.6c-1.8,4.3-4.2,8-7.4,11.1c-3.1,3.1-6.8,5.6-11.2,7.4c-4.3,1.8-9,2.7-14.1,2.7h-15.1v28h-18.2V148.5z
				 M676.5,165.4v36h13.9c2.7,0,5.1-0.5,7.4-1.4c2.2-0.9,4.1-2.2,5.8-3.9c1.6-1.6,2.9-3.6,3.7-5.8c0.9-2.2,1.3-4.5,1.3-7
				c0-2.5-0.4-4.8-1.3-7c-0.9-2.2-2.1-4.1-3.7-5.7c-1.6-1.6-3.5-2.9-5.8-3.8c-2.2-0.9-4.7-1.4-7.4-1.4H676.5z"/>
			<path d="M736.7,147.2h18.2v99h-18.2V147.2z"/>
			<path d="M837,246.2H819v-9.8c-2.5,3.1-5.6,5.5-9.4,7.3s-8.1,2.6-13.1,2.6c-9.3,0-16.6-2.9-22-8.7c-5.4-5.8-8.1-13.8-8.1-24.2
				v-45.6h18.3v43.5c0,5.9,1.4,10.6,4.1,14.1c2.7,3.4,6.9,5.2,12.6,5.2c5,0,9.1-1.8,12.4-5.4c3.3-3.6,5-8.7,5-15.4v-42H837V246.2z"
				/>
			<path d="M877.9,246.3c-8.7,0-15.8-1.6-21.5-4.8c-5.7-3.2-10.1-7.9-13.2-14l16.7-7.5c1.9,3.4,4.4,6.1,7.6,7.9
				c3.2,1.8,7,2.8,11.2,2.8c4.5,0,7.8-0.9,10-2.7c2.2-1.8,3.3-3.9,3.3-6.4c0-1.4-0.5-2.5-1.5-3.3c-1-0.9-2.4-1.6-4-2.2
				c-1.7-0.6-3.6-1.2-5.8-1.6c-2.2-0.4-4.5-0.9-7-1.4c-3.4-0.7-6.7-1.5-10-2.4c-3.3-0.9-6.2-2.2-8.8-3.9c-2.6-1.7-4.7-3.8-6.3-6.4
				c-1.6-2.6-2.4-5.8-2.4-9.8c0-3,0.7-5.8,2.2-8.6c1.5-2.8,3.5-5.2,6.2-7.3c2.7-2.1,5.9-3.8,9.7-5c3.8-1.2,8-1.9,12.6-1.9
				c7.8,0,14.4,1.5,19.6,4.4c5.2,2.9,9.3,6.9,12.4,11.9l-15.4,7.3c-1.6-2.6-3.8-4.7-6.7-6.2c-2.9-1.5-6.2-2.3-9.9-2.3
				c-4.3,0-7.4,0.8-9.5,2.4c-2.1,1.6-3.1,3.5-3.1,5.6c0,2.5,1.5,4.2,4.5,5.3c3,1.1,7.5,2.2,13.4,3.4c3.2,0.6,6.4,1.4,9.7,2.4
				c3.3,1,6.2,2.3,8.9,4c2.7,1.7,4.8,3.8,6.5,6.4c1.6,2.6,2.5,5.8,2.5,9.8c0,2.6-0.6,5.4-1.9,8.2c-1.2,2.9-3.2,5.5-5.8,7.9
				c-2.6,2.4-6,4.4-10,5.9C888.3,245.6,883.5,246.3,877.9,246.3z"/>
		</g>
	</g>
</g>
</svg>
