<svg width="36" height="26" viewBox="0 0 36 26" fill="none" xmlns="http://www.w3.org/2000/svg">
<path d="M8.98194 9.43278C8.44955 9.14499 7.48988 8.96522 6.4014 8.88537C6.60399 8.1735 6.83444 7.64842 7.19537 7.09453C7.28469 6.95762 7.44539 6.8867 7.6043 6.91587C7.83817 6.95897 8.04286 6.91094 8.14835 6.7646C8.33283 6.50919 8.14387 6.05087 7.72595 5.74114C7.30804 5.43141 6.8201 5.38786 6.6356 5.64373C6.52518 5.7968 6.54896 6.0226 6.67556 6.24569C6.74917 6.37587 6.73929 6.53746 6.6585 6.6636C6.22142 7.34642 5.9349 8.00939 5.68635 8.84802C5.43883 8.83988 5.18858 8.83587 4.9379 8.8371C4.68921 8.83594 4.4409 8.83993 4.19527 8.84797C3.9466 8.00935 3.65978 7.3464 3.22272 6.6636C3.14191 6.53746 3.13205 6.37587 3.20567 6.24569C3.33224 6.0226 3.35605 5.7968 3.24562 5.64373C3.06112 5.38786 2.57318 5.43141 2.15527 5.74114C1.73781 6.05087 1.54837 6.50919 1.73331 6.7646C1.8388 6.91094 2.04349 6.95897 2.27736 6.91587C2.43627 6.8867 2.59696 6.95762 2.68629 7.09453C3.04717 7.64837 3.27761 8.17342 3.48022 8.88519C2.38936 8.96484 1.42721 9.14449 0.893887 9.43278C-0.145721 9.91534 -0.0254328 11.4626 0.0432605 12.4852C0.111478 13.5037 0.302721 14.9658 0.795141 15.7872C1.04696 16.2895 1.64757 16.6217 2.34066 16.6616C2.58603 16.6738 3.07429 16.6823 3.65948 16.6873C3.65948 16.9886 3.65948 17.3444 3.65948 17.541C3.65948 18.0976 2.69617 18.0981 2.13507 18.2422C1.57709 18.3854 1.57801 18.9433 1.57801 18.9433H4.63042C4.63042 18.1084 4.49172 18.0972 4.49218 17.541C4.49218 17.2789 4.49218 16.9583 4.49218 16.6917C4.78893 16.6925 5.09237 16.6925 5.38904 16.6917C5.38904 16.9583 5.38904 17.2789 5.38904 17.541C5.3895 18.0972 5.25078 18.1084 5.25078 18.9433H8.30321C8.30321 18.9433 8.30411 18.3854 7.74615 18.2422C7.18503 18.0981 6.22174 18.0976 6.22174 17.541C6.22174 17.3444 6.22174 16.9885 6.22174 16.6872C6.80453 16.6823 7.29054 16.6738 7.53517 16.6616C8.22825 16.6213 8.82886 16.2891 9.08068 15.7872C9.57312 14.9658 9.76435 13.5033 9.83256 12.4852C9.9008 11.4626 10.0215 9.91579 8.98194 9.43278ZM9.19919 11.7755C9.17945 12.6836 9.10358 13.5356 8.32073 13.9773C7.49208 14.4446 6.24506 14.6731 4.9379 14.6731C3.63076 14.6731 2.38331 14.4446 1.55509 13.9773C0.77225 13.5356 0.696375 12.6836 0.676638 11.7755C0.65823 10.9222 0.695026 10.2147 1.50572 9.93059C2.31642 9.64645 3.54546 9.5055 4.9379 9.51044C6.33036 9.5055 7.55941 9.64645 8.3701 9.93059C9.18078 10.2147 9.21759 10.9222 9.19919 11.7755Z" fill="black"/>
<path d="M3.2546 12.8771C3.75043 12.8771 4.15238 12.4751 4.15238 11.9793C4.15238 11.4835 3.75043 11.0815 3.2546 11.0815C2.75877 11.0815 2.35681 11.4835 2.35681 11.9793C2.35681 12.4751 2.75877 12.8771 3.2546 12.8771Z" fill="black"/>
<path d="M6.62117 12.8771C7.11699 12.8771 7.51894 12.4751 7.51894 11.9793C7.51894 11.4835 7.11699 11.0815 6.62117 11.0815C6.12534 11.0815 5.72339 11.4835 5.72339 11.9793C5.72339 12.4751 6.12534 12.8771 6.62117 12.8771Z" fill="black"/>
<path d="M18.7573 9.20898H13.0942C13.0026 9.20898 12.9281 9.28305 12.9281 9.37507V10.5422C12.9281 10.6338 13.0022 10.7083 13.0942 10.7083H15.1766V16.5294C15.1766 16.621 15.2506 16.6955 15.3426 16.6955H16.5098C16.6013 16.6955 16.6758 16.6215 16.6758 16.5294V10.7078H18.7582C18.8498 10.7078 18.9243 10.6338 18.9243 10.5417V9.37463C18.9234 9.2835 18.8489 9.20898 18.7573 9.20898Z" fill="black"/>
<path d="M31.3926 10.7761C29.835 10.7761 28.5723 12.1318 28.5723 13.8039C28.5723 15.476 29.835 16.8316 31.3926 16.8316C32.9502 16.8316 34.213 15.476 34.213 13.8039C34.213 12.1318 32.9502 10.7761 31.3926 10.7761ZM31.3926 15.4365C30.6057 15.4365 29.9678 14.7057 29.9678 13.8039C29.9678 12.902 30.6057 12.1713 31.3926 12.1713C32.1795 12.1713 32.8174 12.902 32.8174 13.8039C32.8174 14.7057 32.1795 15.4365 31.3926 15.4365Z" fill="black"/>
<path d="M28.767 9.20898H27.4765C27.4069 9.20898 27.3445 9.25252 27.3207 9.31762L25.4601 14.3869L23.5994 9.31762C23.5756 9.25208 23.5132 9.20898 23.4437 9.20898H22.1527C22.0602 9.20898 21.9965 9.30101 22.0279 9.38764L24.67 16.5864C24.6938 16.652 24.7562 16.6951 24.8258 16.6951H26.093C26.1626 16.6951 26.225 16.6515 26.2488 16.5864L28.8909 9.38764C28.9232 9.30101 28.859 9.20898 28.767 9.20898Z" fill="black"/>
<path d="M21.2841 16.6955H19.9469C19.9024 16.6955 19.8661 16.6592 19.8661 16.6147V11.7883C19.8661 11.7439 19.9024 11.7075 19.9469 11.7075H21.2841C21.3285 11.7075 21.3649 11.7439 21.3649 11.7883V16.6147C21.3649 16.6596 21.3285 16.6955 21.2841 16.6955Z" fill="black"/>
<path d="M20.6153 10.8649C21.1111 10.8649 21.5131 10.4629 21.5131 9.96711C21.5131 9.47129 21.1111 9.06934 20.6153 9.06934C20.1195 9.06934 19.7175 9.47129 19.7175 9.96711C19.7175 10.4629 20.1195 10.8649 20.6153 10.8649Z" fill="black"/>
<path d="M34.2112 11.3192V11.317C34.2112 11.0907 34.3943 10.9004 34.6255 10.9004C34.8589 10.9004 35.0398 11.0885 35.0398 11.3147V11.317C35.0398 11.5432 34.8567 11.7335 34.6255 11.7335C34.3921 11.7331 34.2112 11.545 34.2112 11.3192ZM34.9922 11.3165V11.3143C34.9922 11.1118 34.8351 10.9453 34.6255 10.9453C34.4186 10.9453 34.2588 11.1145 34.2588 11.3165V11.3188C34.2588 11.5212 34.4159 11.6877 34.6255 11.6877C34.8324 11.6877 34.9922 11.519 34.9922 11.3165ZM34.4635 11.0975H34.6542C34.7472 11.0975 34.8163 11.1428 34.8163 11.2308C34.8163 11.2999 34.7759 11.3425 34.7189 11.3592L34.8307 11.5185H34.7332L34.6331 11.3731H34.5451V11.5185H34.4644V11.0975H34.4635V11.0975ZM34.647 11.3071C34.7018 11.3071 34.7328 11.2784 34.7328 11.238C34.7328 11.1926 34.7018 11.1688 34.647 11.1688H34.5447V11.3071H34.647V11.3071Z" fill="black"/>
</svg>
