<?xml version="1.0" encoding="utf-8"?>
<!-- Generator: Adobe Illustrator 26.0.3, SVG Export Plug-In . SVG Version: 6.00 Build 0)  -->
<svg version="1.1" id="Layer_1" xmlns="http://www.w3.org/2000/svg" xmlns:xlink="http://www.w3.org/1999/xlink" x="0px" y="0px"
	 viewBox="0 0 35 26" style="enable-background:new 0 0 35 26;" xml:space="preserve">
<style type="text/css">
	.st0{fill:none;}
	.st1{fill-rule:evenodd;clip-rule:evenodd;}
</style>
<path class="st0" d="M35,0H0v26h35V0z"/>
<path class="st1" d="M33.2,11.3c0-0.6-0.6-1.2-1.2-1.2h-3.7c-0.6,0-1.2,0.6-1.2,1.2v3.3c0,0.6,0.6,1.2,1.2,1.2H32
	c0.6,0,1.2-0.6,1.2-1.2V11.3z M34.5,11.3v3.3c0,1.2-1.1,2.2-2.5,2.2h-3.7c-1.4,0-2.5-1-2.5-2.2v-3.3c0-1.2,1.1-2.2,2.5-2.2H32
	C33.4,9.1,34.5,10,34.5,11.3z M22.9,16.8h1.3V9.1h-1.3V16.8z M15,14.2l4.2-1.5c1.8-0.7,2.2-1.9,2.2-3.6h-8.1v1.1H20
	c-0.1,0.7-0.6,1.2-1.2,1.4l-4.2,1.5c-1.9,0.7-2,1.8-2,3.7h8.7v-1.1H14C14,14.9,14.3,14.5,15,14.2z M9.9,16.8h1.3V9.1H9.9V16.8z
	 M7,9.1h1.3v2.8c0,0.4-0.2,0.8-0.4,1.1L6,16.1c-0.7,1.1-2.9,1.1-3.6,0l-2-3.2c-0.2-0.2-0.4-0.6-0.4-1V9.1h1.3V12c0,0,0,0.1,0,0.2
	l2,3.3c0.3,0.5,1.3,0.5,1.6,0l2-3.2C7,12.1,7,12,7,12V9.1L7,9.1L7,9.1z"/>
</svg>
