<svg width="44" height="26" viewBox="0 0 44 26" fill="none" xmlns="http://www.w3.org/2000/svg">
<path d="M22.931 16.881H21.6375L19.4209 13.826L17.1979 16.881H15.9044L18.7644 12.9355L16.1254 9.30196H17.4189L19.4209 12.0515L21.4163 9.30196H22.7098L20.0708 12.9355L22.931 16.881ZM29.6195 14.723C29.6195 15.386 29.3985 15.919 28.963 16.3025C28.5274 16.6795 27.8905 16.881 27.0845 16.881H23.542V13.5075H21.852L22.554 12.539H23.542V9.30846H26.948C27.715 9.30846 28.3 9.49046 28.7095 9.85446C29.119 10.2185 29.3204 10.6995 29.3204 11.2845C29.3204 12.0125 28.9889 12.565 28.3389 12.9225C28.7549 13.085 29.0799 13.319 29.2944 13.631C29.5089 13.9495 29.6195 14.3135 29.6195 14.723ZM24.6859 12.539H26.8569C27.2924 12.539 27.6304 12.4415 27.8449 12.2465C28.0594 12.0515 28.1764 11.759 28.1764 11.3755C28.1764 11.0375 28.0594 10.771 27.8319 10.589C27.6044 10.4005 27.2729 10.303 26.8569 10.303H24.6859V12.539V12.539ZM28.4559 14.7035C28.4559 14.307 28.3325 14.0015 28.0984 13.8065C27.8643 13.6115 27.4939 13.5075 27.0194 13.5075H24.6924V15.88H27.0194C27.4809 15.88 27.8449 15.776 28.0854 15.5745C28.326 15.3795 28.4559 15.0805 28.4559 14.7035ZM37.3999 13.0915C37.3999 13.6765 37.3154 14.2095 37.1464 14.684C36.9839 15.1585 36.7239 15.581 36.3859 15.9515C36.0414 16.3155 35.6514 16.5885 35.2029 16.777C34.7609 16.959 34.254 17.05 33.7014 17.05C33.1424 17.05 32.6354 16.9525 32.1869 16.777C31.7449 16.595 31.3484 16.322 31.0169 15.9515C30.6724 15.5875 30.4189 15.165 30.2499 14.6905C30.0809 14.216 29.9964 13.6765 29.9964 13.0915C29.9964 12.5065 30.0874 11.967 30.2499 11.4925C30.4189 11.018 30.6724 10.589 31.0169 10.2185C31.3484 9.85446 31.7449 9.58796 32.1869 9.39946C32.629 9.22396 33.1424 9.12646 33.7014 9.12646C34.2539 9.12646 34.7609 9.21746 35.2029 9.39946C35.645 9.57497 36.048 9.85446 36.3859 10.2185C36.7239 10.5825 36.9774 11.018 37.1464 11.4925C37.3154 11.9735 37.3999 12.513 37.3999 13.0915ZM31.2054 13.0915C31.2054 13.982 31.4329 14.697 31.888 15.217C32.3364 15.7435 32.9475 16.01 33.708 16.01C34.4685 16.01 35.073 15.7435 35.528 15.217C35.9765 14.7035 36.204 13.9885 36.204 13.0915C36.204 12.1945 35.9766 11.4795 35.528 10.9595C35.0731 10.4395 34.462 10.1795 33.708 10.1795C32.9605 10.1795 32.3495 10.446 31.888 10.9595C31.4394 11.4925 31.2054 12.214 31.2054 13.0915ZM41.0594 12.942L43.6985 9.30846H42.405L40.4095 12.058L38.4141 9.30846H37.1206L39.7596 12.942L36.8996 16.8875H38.1931L40.4161 13.8325L42.6391 16.8875H43.9196L41.0594 12.942Z" fill="black"/>
<path d="M7.29846 11.7524C7.30497 11.7524 7.31148 11.7589 7.31798 11.7654C9.203 13.1954 12.427 16.7444 11.4455 17.7454C10.3405 18.7139 8.89093 19.3054 7.29846 19.3054C5.7125 19.3054 4.26293 18.7139 3.15146 17.7454C2.16995 16.7379 5.39393 13.1954 7.27894 11.7654C7.28553 11.7589 7.29204 11.7524 7.29846 11.7524ZM10.581 7.6249C9.6125 7.0464 8.56601 6.7019 7.29846 6.7019C6.03099 6.7019 4.98442 7.05291 4.02244 7.6249C4.00942 7.63141 4.00292 7.6444 4.00942 7.65741C4.01593 7.67041 4.02894 7.67041 4.04196 7.67041C5.26396 7.40391 7.11644 8.46341 7.29196 8.5674C7.29846 8.5674 7.29846 8.57391 7.30497 8.57391C7.31148 8.57391 7.31148 8.57391 7.31798 8.5674C7.49349 8.45691 9.35249 7.4104 10.568 7.67041C10.581 7.67041 10.594 7.67041 10.6005 7.65741C10.594 7.6444 10.594 7.63141 10.581 7.6249ZM2.89152 8.5089C2.87851 8.51541 2.872 8.52191 2.8655 8.5284C1.71498 9.6659 1 11.2519 1 13.0004C1 14.4369 1.48099 15.7629 2.29349 16.8159C2.3 16.8289 2.31952 16.8354 2.32603 16.8289C2.33904 16.8224 2.33904 16.8094 2.33253 16.7964C1.85154 15.3079 4.30856 11.7134 5.57603 10.1989C5.58253 10.1924 5.58253 10.1859 5.58253 10.1794C5.58253 10.1729 5.57603 10.1664 5.56952 10.1599C3.64547 8.24891 2.99547 8.45041 2.89152 8.5089ZM9.03399 10.1599C9.02749 10.1664 9.02098 10.1729 9.02098 10.1794C9.02098 10.1859 9.02749 10.1924 9.02749 10.1989C10.295 11.7069 12.752 15.3079 12.271 16.7964C12.2645 16.8094 12.2645 16.8224 12.2775 16.8289C12.2905 16.8354 12.3035 16.8289 12.31 16.8159C13.1225 15.7564 13.6035 14.4369 13.6035 13.0004C13.6035 11.2519 12.8885 9.67241 11.7445 8.5284C11.738 8.52191 11.725 8.5089 11.7185 8.5089C11.6015 8.45041 10.9515 8.24891 9.03399 10.1599Z" fill="black"/>
</svg>
