<svg width="45" height="26" viewBox="0 0 45 26" fill="none" xmlns="http://www.w3.org/2000/svg">
<path d="M5.88482 12.8036L8.62925 9.125H7.4832C6.97077 9.125 6.63868 9.30632 6.36768 9.66797L4.92008 11.6127L3.51827 9.66797C3.24727 9.30632 2.91519 9.125 2.40275 9.125H1.2567L3.97058 12.8036L1 16.8144H2.08595C2.59838 16.8144 2.93046 16.633 3.20147 16.2714L4.92008 13.9945L8.94606 19.5578C9.20276 19.9195 9.54914 20.1008 10.0616 20.1008H11.2372L5.88482 12.8036ZM27.8526 16.8144H29.4052V9.125H27.8526V16.8144ZM15.5342 16.8144H17.0868V9.125H15.5342V16.8144ZM39.0851 19.5283L44.7085 9.125H43.864C43.3516 9.125 42.9594 9.27578 42.7485 9.66797L40.5318 13.7837L38.6166 9.66797C38.421 9.26051 38.0135 9.125 37.5011 9.125H36.6871L39.6424 15.3973L37.064 20.1018H37.9085C38.4362 20.1008 38.859 19.9357 39.0851 19.5283ZM18.9418 9.125V16.8144H20.4944V11.5373C20.9773 10.8589 21.6701 10.4371 22.5298 10.4371C23.6759 10.4371 24.4593 11.1604 24.4593 12.608V16.0758C24.4593 16.5128 24.7609 16.8144 25.1827 16.8144H26.0119V12.3361C26.0119 10.3455 24.7456 8.95897 22.9058 8.95897C21.9258 8.95897 21.1118 9.30536 20.4935 9.87886V9.125H18.9418V9.125ZM32.2851 14.0852C32.2851 15.759 33.31 16.9499 35.1498 16.9499C35.6021 16.9499 35.979 16.8897 36.2806 16.7991L35.9638 15.4422C35.7681 15.487 35.5267 15.5175 35.2548 15.5175C34.5009 15.5175 33.8377 15.1101 33.8377 14.0547V10.5125H36.0086L35.375 9.125H33.8368V6.03419L32.2842 6.71266V9.125H30.641V10.5125H32.2842V14.0852H32.2851V14.0852ZM10.7553 10.5125V16.8144H12.3079V10.5125H14.2985V9.125H12.3079V8.55245C12.3079 7.24036 13.0923 6.80332 13.8605 6.80332C14.0561 6.80332 14.2374 6.83384 14.3882 6.87869L14.705 5.50649C14.5093 5.4311 14.1925 5.35571 13.7402 5.35571C11.8107 5.35571 10.7553 6.78804 10.7553 8.52192V9.125H9.94135L8.96038 10.5125H10.7553V10.5125Z" fill="black"/>
</svg>
